<svg xmlns="http://www.w3.org/2000/svg" xmlns:xlink="http://www.w3.org/1999/xlink" version="1.1" x="0px" y="0px" viewBox="0 0 100 125" enable-background="new 0 0 100 100" xml:space="preserve"><path d="M50,15.094c-19.248,0-34.906,15.658-34.906,34.906c0,19.248,15.658,34.906,34.906,34.906  c19.248,0,34.906-15.658,34.906-34.906C84.906,30.752,69.248,15.094,50,15.094z M17.147,50c0-18.114,14.738-32.853,32.853-32.853  S82.853,31.886,82.853,50c0,8.285-3.106,15.84-8.185,21.627c-2.473-8.916-9.637-15.676-18.46-17.803  c4.784-2.24,8.114-7.088,8.114-12.711c0-7.742-6.297-14.041-14.04-14.041c-7.742,0-14.04,6.299-14.04,14.041  c0,5.626,3.333,10.475,8.121,12.713C35.398,56,28.125,62.98,25.781,72.121C20.438,66.275,17.147,58.525,17.147,50z M50.283,53.1  c-6.609,0-11.987-5.377-11.987-11.986c0-6.61,5.378-11.988,11.987-11.988S62.27,34.503,62.27,41.113  C62.27,47.722,56.892,53.1,50.283,53.1z M27.29,73.68l0.207,0.045c2.2-10.76,11.785-18.572,22.787-18.572h0.002  c10.938,0,20.385,7.656,22.705,18.277C67.059,79.246,58.945,82.852,50,82.852C41.189,82.852,33.195,79.348,27.29,73.68z"/><text x="0" y="115" fill="#000000" font-size="5px" font-weight="bold" font-family="'Helvetica Neue', Helvetica, Arial-Unicode, Arial, Sans-serif">Created by chiara galli</text><text x="0" y="120" fill="#000000" font-size="5px" font-weight="bold" font-family="'Helvetica Neue', Helvetica, Arial-Unicode, Arial, Sans-serif">from the Noun Project</text></svg>